<svg aria-hidden="true" style="width:0;height:0;position:absolute;overflow:hidden" xmlns="http://www.w3.org/2000/svg"><defs><symbol id="icon-icons8-search" viewBox="0 0 32 32"><path fill="#fff" style="fill:var(--color1,#fff)" d="M27.225 27.225c-.575.575-1.525.575-2.125 0l-3.175-3.175c-.575-.575-.575-1.525 0-2.125.575-.575 1.525-.575 2.125 0l3.175 3.175c.575.6.575 1.55 0 2.125zM6.884 6.897a8.75 8.75 0 0 0 12.374 12.374A8.75 8.75 0 0 0 6.884 6.897z"/><path fill="#fff" style="fill:var(--color1,#fff)" d="M6.884 6.897a8.75 8.75 0 0 0 12.374 12.374A8.75 8.75 0 0 0 6.884 6.897z"/><path fill="#71c2ff" style="fill:var(--color2,#71c2ff)" d="M13.075 21.075c-.425 0-.75-.325-.75-.75s.325-.75.75-.75a6.488 6.488 0 0 0 4.6-1.9 6.463 6.463 0 0 0 1.725-6.1.745.745 0 1 1 1.45-.35c.65 2.725-.125 5.55-2.1 7.525a8.02 8.02 0 0 1-5.675 2.325zM18.25 8.75a.72.72 0 0 1-.525-.225l-.05-.025c-.3-.3-.3-.775 0-1.05.3-.3.775-.3 1.05 0l.05.05c.3.3.3.775 0 1.05a.807.807 0 0 1-.525.2z"/><path fill="#444b54" style="fill:var(--color3,#444b54)" d="M13.075 22.575A9.503 9.503 0 0 1 6.35 19.8c-3.7-3.7-3.7-9.725 0-13.425s9.725-3.7 13.425 0C23.5 10.075 23.5 16.1 19.8 19.8a9.46 9.46 0 0 1-6.725 2.775zm0-17.475c-2.05 0-4.1.775-5.65 2.35a8.012 8.012 0 0 0 0 11.325c3.125 3.075 8.2 3.075 11.325-.025a8.012 8.012 0 0 0 0-11.325A8.066 8.066 0 0 0 13.075 5.1zM27.75 24.575 24.575 21.4a2.25 2.25 0 0 0-1.6-.65c-.35 0-.675.075-.975.225l-.625-.625c-.3-.3-.775-.3-1.05 0-.3.3-.3.775 0 1.05l.625.625c-.15.3-.225.625-.225.975 0 .6.225 1.175.65 1.6l3.2 3.15c.45.45 1.025.65 1.6.65s1.15-.225 1.6-.65c.85-.875.85-2.3-.025-3.175zM26.7 26.7c-.3.3-.775.3-1.05 0l-3.2-3.175a.72.72 0 0 1-.225-.525c0-.2.075-.4.225-.525.15-.15.325-.225.525-.225s.4.075.525.225l3.175 3.175c.325.275.325.75.025 1.05z"/></symbol><symbol id="icon-search" viewBox="0 0 32 32"><path d="m31.008 27.231-7.58-6.447c-.784-.705-1.622-1.029-2.299-.998a11.954 11.954 0 0 0 2.87-7.787c0-6.627-5.373-12-12-12s-12 5.373-12 12 5.373 12 12 12c2.972 0 5.691-1.081 7.787-2.87-.031.677.293 1.515.998 2.299l6.447 7.58c1.104 1.226 2.907 1.33 4.007.23s.997-2.903-.23-4.007zM12 20a8 8 0 1 1 0-16 8 8 0 0 1 0 16z"/></symbol></defs></svg>